<svg id="Pfad" xmlns="http://www.w3.org/2000/svg" viewBox="0 0 100 100"><title>_</title><path d="M34.632,100a2.094,2.094,0,0,1-1.26-.421,2.146,2.146,0,0,1-.857-1.717V85.686h-16.4A2.129,2.129,0,0,1,14,83.547V2.139A2.129,2.129,0,0,1,16.117,0H83.885a2.117,2.117,0,0,1,1.5.627A2.148,2.148,0,0,1,86,2.139l-.021,80.605a2.134,2.134,0,0,1-1.5,2.043l-49.23,15.12A2.13,2.13,0,0,1,34.632,100Zm2.117-76.411V94.977l45-13.819.022-73.715ZM18.235,81.408h14.28V22.08a2.138,2.138,0,0,1,1.408-2.014L77.948,4.277H18.235Z"></path></svg>