<svg id="Pfad" xmlns="http://www.w3.org/2000/svg" viewBox="0 0 32 32"><path d="M28.69,26.15a7.49,7.49,0,0,0,3.31-6c0-4.45-4.41-8.05-9.85-8.05s-9.85,3.6-9.85,8.05,4.41,8.05,9.85,8.05a11.83,11.83,0,0,0,3.32-.47.38.38,0,0,1,.27,0l2.44,1.13a.38.38,0,0,0,.55-.39l-.19-2A.38.38,0,0,1,28.69,26.15Zm-9.92-7.28A1.28,1.28,0,1,1,20,17.59,1.28,1.28,0,0,1,18.77,18.87Zm6.41,0a1.28,1.28,0,1,1,1.28-1.28A1.28,1.28,0,0,1,25.18,18.87Z"></path><path d="M22.15,11.31l.82,0C22.17,6.63,17.36,3,11.54,3,5.17,3,0,7.35,0,12.73a9.14,9.14,0,0,0,4,7.33.38.38,0,0,1,.15.38l-.53,2.78a.38.38,0,0,0,.55.41l3.31-1.7a.38.38,0,0,1,.28,0,13.53,13.53,0,0,0,4.17.54h0a7.4,7.4,0,0,1-.37-2.31C11.52,15.27,16.29,11.31,22.15,11.31Zm-7.1-3a1.48,1.48,0,1,1-1.48,1.48A1.48,1.48,0,0,1,15.05,8.36Zm-7.76,3A1.48,1.48,0,1,1,8.77,9.84,1.48,1.48,0,0,1,7.29,11.31Z"></path></svg>